<?xml version="1.0" encoding="iso-8859-1"?>
<!-- Uploaded to: SVG Repo, www.svgrepo.com, Generator: SVG Repo Mixer Tools -->
<svg height="800px" width="800px" version="1.1" id="Layer_1" xmlns="http://www.w3.org/2000/svg" xmlns:xlink="http://www.w3.org/1999/xlink" 
	 viewBox="0 0 392.533 392.533" xml:space="preserve">
<path style="fill:#56ACE0;" d="M180.17,339.2h-13.059c-6.012,0-10.925-4.848-10.925-10.925c0-6.012,4.848-10.925,10.925-10.925
	h13.059c1.034,0,1.875,0.129,2.78,0.388c-2.069-6.465-3.556-13.188-4.396-20.17h-8.339c-6.012,0-10.925-4.848-10.925-10.925
	c0-6.012,4.848-10.925,10.925-10.925h7.952c0.776-8.986,2.651-17.648,5.495-25.794h-9.956c-6.012,0-10.925-4.848-10.925-10.925
	c0-6.012,4.848-10.925,10.925-10.925h14.933c1.745,0,3.426,0.453,4.848,1.164c6.853-11.184,15.774-21.075,26.117-29.156
	l1.681-15.451V32.711c0-6.012-4.848-10.925-10.925-10.925H32.711c-6.012,0-10.925,4.848-10.925,10.925V184.76l19.523,176.291
	c0.646,5.56,5.236,9.762,10.796,9.762h138.731c5.56,0,10.214-4.202,10.796-9.632l0.84-7.37c-5.107-6.077-9.438-12.8-13.059-19.911
	C187.669,337.067,184.242,339.2,180.17,339.2z"/>
<path style="fill:#FFC10D;" d="M285.156,199.564c-47.127,0-85.527,38.4-85.527,85.527c0,47.192,38.4,85.527,85.527,85.527
	s85.592-38.335,85.592-85.527C370.747,237.964,332.348,199.564,285.156,199.564z"/>
<path style="fill:#FFFFFF;" d="M166.853,171.895c6.012,0,10.925-4.848,10.925-10.925V76.154c0-6.012-4.848-10.925-10.925-10.925
	H76.347c-6.012,0-10.925,4.848-10.925,10.925v84.816c0,6.012,4.848,10.925,10.925,10.925H166.853z"/>
<g>
	<path style="fill:#194F82;" d="M166.853,43.507H76.347c-18.036,0-32.711,14.675-32.711,32.711v84.816
		c0,18.036,14.675,32.711,32.711,32.711h90.57c18.036,0,32.711-14.675,32.711-32.711V76.154
		C199.564,58.117,184.889,43.507,166.853,43.507z M177.713,160.97c0,6.012-4.848,10.925-10.925,10.925H76.283
		c-6.012,0-10.925-4.848-10.925-10.925v-16.291H85.98c6.012,0,10.925-4.848,10.925-10.925c0-6.012-4.848-10.925-10.925-10.925
		H65.358v-17.713h42.99c6.012,0,10.925-4.848,10.925-10.925c0-6.012-4.848-10.925-10.925-10.925H65.487v-7.111
		c0-6.012,4.848-10.925,10.925-10.925h90.57c6.012,0,10.925,4.848,10.925,10.925v84.752h-0.194V160.97z"/>
	<path style="fill:#194F82;" d="M285.156,243.588c8.469,0,15.386,6.853,15.386,15.386c0,6.012,4.849,10.925,10.925,10.925
		c6.012,0,10.925-4.848,10.925-10.925c0-16.679-11.055-30.901-26.246-35.556v-6.723c0-6.012-4.848-10.925-10.925-10.925
		c-6.012,0-10.925,4.848-10.925,10.925v6.723c-15.192,4.655-26.246,18.877-26.246,35.556c0,20.493,16.679,37.172,37.172,37.172
		c-0.323,0,0,0,0.065,0c7.822,0.776,15.321,7.24,15.321,15.192c0,8.469-6.853,15.386-15.386,15.386s-15.386-6.853-15.386-15.386
		c0-6.012-4.848-10.925-10.925-10.925c-6.012,0-10.925,4.848-10.925,10.925c0,16.679,11.055,30.901,26.246,35.556v6.659
		c0,6.012,4.848,10.925,10.925,10.925c6.012,0,10.925-4.848,10.925-10.925v-6.594c15.192-4.655,26.246-18.877,26.246-35.556
		c0-20.493-18.101-37.107-38.529-37.107c0.323,0,0,0-0.065,0c-7.822-0.776-13.899-7.37-13.899-15.321
		C269.77,250.44,276.622,243.588,285.156,243.588z"/>
	<path style="fill:#194F82;" d="M69.366,249.988c6.012,0,10.925-4.848,10.925-10.925c0-6.012-4.848-10.925-10.925-10.925H54.497
		c-6.012,0-10.925,4.848-10.925,10.925c0,6.012,4.848,10.925,10.925,10.925H69.366z"/>
	<path style="fill:#194F82;" d="M129.034,228.202h-14.933c-6.012,0-10.925,4.848-10.925,10.925c0,6.012,4.848,10.925,10.925,10.925
		h14.933c6.012,0,10.925-4.848,10.925-10.925C139.96,233.051,135.046,228.202,129.034,228.202z"/>
	<path style="fill:#194F82;" d="M72.921,297.632c6.012,0,10.925-4.848,10.925-10.925c0-6.077-4.848-10.925-10.925-10.925H59.022
		c-6.012,0-10.925,4.848-10.925,10.925c0,6.012,4.848,10.925,10.925,10.925H72.921z"/>
	<path style="fill:#194F82;" d="M128.517,275.846h-13.899c-6.012,0-10.925,4.849-10.925,10.925c0,6.012,4.848,10.925,10.925,10.925
		h13.899c6.012,0,10.925-4.848,10.925-10.925S134.529,275.846,128.517,275.846z"/>
	<path style="fill:#194F82;" d="M76.024,317.414H62.966c-6.012,0-10.925,4.848-10.925,10.925s4.848,10.925,10.925,10.925h13.059
		c6.012,0,10.925-4.848,10.925-10.925C86.95,322.327,82.036,317.414,76.024,317.414z"/>
	<path style="fill:#194F82;" d="M128.129,317.414h-13.059c-6.012,0-10.925,4.848-10.925,10.925s4.848,10.925,10.925,10.925h13.059
		c6.012,0,10.925-4.848,10.925-10.925C138.99,322.327,134.141,317.414,128.129,317.414z"/>
	<path style="fill:#194F82;" d="M285.156,177.778c-14.933,0-29.156,3.103-42.02,8.598c0-0.323,0.065-0.646,0.065-1.034V32.711
		C243.2,14.675,228.525,0,210.489,0H32.776C14.675,0,0,14.675,0,32.711v152.695c0,0.388,0,0.776,0.065,1.228l19.653,176.873
		c1.875,16.549,15.838,29.026,32.517,29.026h138.731c13.899,0,25.729-8.727,30.448-21.204
		c17.842,13.188,39.887,21.204,63.741,21.204c59.216,0,107.378-48.162,107.378-107.378S344.372,177.778,285.156,177.778z
		 M201.762,360.986c-0.646,5.56-5.236,9.632-10.796,9.632H52.234c-5.56,0-10.214-4.202-10.796-9.762L21.786,184.76V32.711
		c0-6.012,4.848-10.925,10.925-10.925h177.713c6.012,0,10.925,4.848,10.925,10.925V184.76l-1.681,15.451
		c-10.343,8.016-19.265,17.907-26.117,29.156c-1.487-0.776-3.103-1.164-4.848-1.164H173.77c-6.012,0-10.925,4.848-10.925,10.925
		c0,6.012,4.848,10.925,10.925,10.925h9.956c-2.844,8.21-4.719,16.873-5.495,25.794h-7.952c-6.012,0-10.925,4.848-10.925,10.925
		c0,6.012,4.848,10.925,10.925,10.925h8.339c0.84,6.982,2.327,13.705,4.396,20.17c-0.905-0.259-1.875-0.388-2.78-0.388h-13.059
		c-6.012,0-10.925,4.849-10.925,10.925s4.848,10.925,10.925,10.925h13.059c4.008,0,7.499-2.133,9.374-5.43
		c3.62,7.111,7.952,13.834,13.059,19.911L201.762,360.986z M285.156,370.747c-47.192,0-85.527-38.4-85.527-85.527
		c0-47.192,38.4-85.527,85.527-85.527s85.592,38.335,85.592,85.463C370.747,332.347,332.348,370.747,285.156,370.747z"/>
</g>
</svg>